<?xml version="1.0" encoding="utf-8"?>
<!-- Generator: Adobe Illustrator 17.0.0, SVG Export Plug-In . SVG Version: 6.00 Build 0)  -->
<!DOCTYPE svg PUBLIC "-//W3C//DTD SVG 1.1//EN" "http://www.w3.org/Graphics/SVG/1.1/DTD/svg11.dtd">
<svg version="1.1" id="Layer_1" xmlns="http://www.w3.org/2000/svg" xmlns:xlink="http://www.w3.org/1999/xlink" x="0px" y="0px"
	 width="960px" height="123.683px" viewBox="0 0 960 123.683" enable-background="new 0 0 960 123.683" xml:space="preserve">
<rect y="-0.075" fill="#DEFFFF" width="960" height="122"/>
<g>
	<path fill="#314B99" d="M27.668,107.418l9.15-5.254c4.066,6.778,10.165,11.861,20.328,11.861c9.492,0,14.911-4.066,14.911-10.506
		c0-7.623-6.1-9.317-18.297-12.875c-11.013-3.22-21.179-7.626-21.179-20.841c0-12.199,10.165-19.145,23.043-19.145
		c10.673,0,18.464,4.406,23.378,11.351l-8.131,6.27c-3.558-4.914-8.472-7.964-15.247-7.964c-7.626,0-12.199,3.558-12.199,8.979
		c0,6.608,4.236,8.472,16.603,12.029c11.859,3.22,23.213,7.964,23.213,21.517c0,11.861-7.966,20.841-25.585,20.841
		C42.239,123.683,32.242,116.227,27.668,107.418z"/>
	<path fill="#314B99" d="M90.871,52.183h11.859l-0.34,13.215c4.574-9.487,12.199-14.739,22.027-14.739
		c11.013,0,18.129,5.93,21.176,14.739c5.254-9.487,14.066-14.739,24.229-14.739c15.417,0,24.904,10.165,24.904,26.771v44.897
		h-11.689V78.953c0-11.181-4.404-17.451-15.417-17.451c-11.183,0-18.809,7.623-18.809,21.517v39.308h-11.859V78.953
		c0-11.181-4.404-17.451-15.247-17.451c-11.184,0-18.975,7.623-18.975,21.517v39.308H90.871V52.183z"/>
	<path fill="#314B99" d="M204.228,23.551c0-4.914,4.068-8.472,8.472-8.472c4.408,0,8.472,3.558,8.472,8.472
		s-4.063,8.301-8.472,8.301C208.296,31.852,204.228,28.464,204.228,23.551z M206.77,52.183h11.859v70.144H206.77V52.183z"/>
	<path fill="#314B99" d="M232.184,0h11.859v122.327h-11.859V0z"/>
	<path fill="#314B99" d="M290.809,113.685c10.503,0,17.619-4.236,22.192-9.317l7.286,7.116
		c-6.435,7.286-15.757,12.199-29.478,12.199c-23.043,0-37.954-15.927-37.954-36.428s15.757-36.596,36.258-36.596
		c22.532,0,36.088,17.281,35.242,40.494h-59.641C266.24,104.538,275.392,113.685,290.809,113.685z M312.496,82.173
		c-1.016-12.029-8.642-21.519-23.383-21.519c-13.385,0-22.362,8.642-24.229,21.519H312.496z"/>
	<path fill="#314B99" d="M325.55,107.418l9.147-5.254c4.068,6.778,10.168,11.861,20.331,11.861c9.492,0,14.911-4.066,14.911-10.506
		c0-7.623-6.1-9.317-18.299-12.875c-11.013-3.22-21.176-7.626-21.176-20.841c0-12.199,10.163-19.145,23.043-19.145
		c10.673,0,18.465,4.406,23.378,11.351l-8.131,6.27c-3.558-4.914-8.471-7.964-15.247-7.964c-7.626,0-12.199,3.558-12.199,8.979
		c0,6.608,4.233,8.472,16.603,12.029c11.859,3.22,23.213,7.964,23.213,21.517c0,11.861-7.966,20.841-25.585,20.841
		C340.121,123.683,330.124,116.227,325.55,107.418z"/>
	<path fill="#314B99" d="M378.756,52.183h12.88l15.077,38.63c1.866,4.576,3.222,10.843,3.222,10.843s1.351-6.267,3.558-10.843
		l18.294-39.646h1.526l18.639,39.478c2.202,4.744,3.728,11.011,3.728,11.011s1.356-6.438,3.218-11.011l15.077-38.462h12.029
		l-29.138,71.668h-1.696l-19.315-42.185c-2.032-4.236-3.388-10.335-3.388-10.335s-1.526,6.267-3.388,10.335l-19.825,42.185h-1.692
		L378.756,52.183z"/>
	<path fill="#314B99" d="M487.879,23.551c0-4.914,4.068-8.472,8.472-8.472c4.408,0,8.471,3.558,8.471,8.472
		s-4.063,8.301-8.471,8.301C491.947,31.852,487.879,28.464,487.879,23.551z M490.42,52.183h11.859v70.144H490.42V52.183z"/>
	<path fill="#314B99" d="M519.053,101.148V62.18h-10.843v-9.998h10.843V15.587h11.694v36.596h19.65v9.998h-19.65v39.138
		c0,9.317,3.218,12.199,8.301,12.199c4.744,0,7.286-2.034,9.487-4.068l6.435,7.456c-3.048,3.22-8.471,6.945-17.109,6.945
		C527.184,123.85,519.053,117.753,519.053,101.148z"/>
	<path fill="#314B99" d="M559.218,0h11.859v65.908c4.404-9.32,13.555-15.249,24.904-15.249c15.587,0,26.26,10.673,26.26,28.972
		v42.695h-11.859V80.987c0-12.369-5.76-19.485-17.449-19.485c-13.05,0-21.857,8.301-21.857,22.195v38.63h-11.859V0z"/>
	<path fill="#314B99" d="M637.162,101.148V62.18h-10.843v-9.998h10.843V15.587h11.694v36.596h19.65v9.998h-19.65v39.138
		c0,9.317,3.218,12.199,8.301,12.199c4.744,0,7.286-2.034,9.487-4.068l6.435,7.456c-3.048,3.22-8.471,6.945-17.108,6.945
		C645.293,123.85,637.162,117.753,637.162,101.148z"/>
	<path fill="#314B99" d="M710.022,113.685c10.503,0,17.619-4.236,22.192-9.317l7.286,7.116
		c-6.435,7.286-15.757,12.199-29.478,12.199c-23.043,0-37.954-15.927-37.954-36.428s15.757-36.596,36.258-36.596
		c22.532,0,36.088,17.281,35.242,40.494h-59.641C685.454,104.538,694.605,113.685,710.022,113.685z M731.709,82.173
		c-1.016-12.029-8.642-21.519-23.383-21.519c-13.385,0-22.362,8.642-24.229,21.519H731.709z"/>
	<path fill="#314B99" d="M784.749,113.685c10.503,0,17.619-4.236,22.192-9.317l7.286,7.116
		c-6.435,7.286-15.757,12.199-29.478,12.199c-23.043,0-37.954-15.927-37.954-36.428s15.757-36.596,36.258-36.596
		c22.532,0,36.088,17.281,35.242,40.494h-59.641C760.18,104.538,769.332,113.685,784.749,113.685z M806.436,82.173
		c-1.016-12.029-8.642-21.519-23.383-21.519c-13.385,0-22.362,8.642-24.229,21.519H806.436z"/>
	<path fill="#314B99" d="M829.148,101.148V62.18h-10.843v-9.998h10.843V15.587h11.694v36.596h19.65v9.998h-19.65v39.138
		c0,9.317,3.218,12.199,8.301,12.199c4.744,0,7.286-2.034,9.487-4.068l6.435,7.456c-3.047,3.22-8.471,6.945-17.108,6.945
		C837.279,123.85,829.148,117.753,829.148,101.148z"/>
	<path fill="#314B99" d="M869.308,0h11.859v65.908c4.404-9.32,13.551-15.249,24.904-15.249c15.587,0,26.26,10.673,26.26,28.972
		v42.695h-11.859V80.987c0-12.369-5.76-19.485-17.449-19.485c-13.05,0-21.857,8.301-21.857,22.195v38.63h-11.859V0z"/>
</g>
<rect y="499.079" fill="none" width="212.989" height="49.498"/>
<text transform="matrix(1 0 0 1 1.068115e-04 525.0701)" font-family="'NeutraTextTF-Book'" font-size="36" letter-spacing="-2">nextra text tf </text>
</svg>
